# xmcd CD database file
#
# Track frame offsets:
#	150
#	46680
#	70469
#	112342
#	153664
#	173602
#	207378
#	229137
#	254680
#	262690
#	276140
#	284800
#	300408
#
# Disc length: 4682 seconds
#
# Revision: 0
# Processed by: cddbd v1.5.2PL0 Copyright (c) Steve Scherf et al.
# Submitted via: CDex 1.79
#
DISCID=c212480d
DTITLE=Chris Hinze - Back On The Map
DYEAR=2004
DGENRE=New Age
TTITLE0=Bombay Groove
TTITLE1=Sort Of Beragi-Alap
TTITLE2=Sort Of Beragi-2Nd Part
TTITLE3=You Can Hear It If You Listen...
TTITLE4=Zagota
TTITLE5=Never Forget Me
TTITLE6=Waltz For Rene
TTITLE7=8000 Days Suite
TTITLE8=8000 And One Day
TTITLE9=8000 And Two Days
TTITLE10=8000 And More Days
TTITLE11=Mangala
TTITLE12=Las Noches Ibicencas
EXTD=YEAR: 2004
EXTT0=
EXTT1=
EXTT2=
EXTT3=
EXTT4=
EXTT5=
EXTT6=
EXTT7=
EXTT8=
EXTT9=
EXTT10=
EXTT11=
EXTT12=
PLAYORDER=
